<svg xmlns="http://www.w3.org/2000/svg" xmlns:xlink="http://www.w3.org/1999/xlink" width="1080" zoomAndPan="magnify" viewBox="0 0 810 809.999993" height="1080" preserveAspectRatio="xMidYMid meet" version="1.0"><defs><g/><clipPath id="2650a16fb5"><path d="M 75 0 L 735 0 C 776.421875 0 810 33.578125 810 75 L 810 735 C 810 776.421875 776.421875 810 735 810 L 75 810 C 33.578125 810 0 776.421875 0 735 L 0 75 C 0 33.578125 33.578125 0 75 0 Z M 75 0 " clip-rule="nonzero"/></clipPath></defs><g clip-path="url(#2650a16fb5)"><rect x="-81" width="972" fill="#1a2a6c" y="-80.999999" height="971.999992" fill-opacity="1"/></g><g fill="#ffffff" fill-opacity="1"><g transform="translate(159.497619, 712.969074)"><g><path d="M 297.3125 -616.90625 L 444.3125 -616.90625 L 444.3125 -190.375 C 444.101562 -150.414062 434.5625 -115.523438 415.6875 -85.703125 C 396.8125 -55.878906 370.753906 -32.734375 337.515625 -16.265625 C 304.285156 0.203125 265.878906 8.4375 222.296875 8.4375 C 183.742188 8.4375 148.753906 1.707031 117.328125 -11.75 C 85.898438 -25.207031 60.894531 -46.09375 42.3125 -74.40625 C 23.738281 -102.71875 14.554688 -138.960938 14.765625 -183.140625 L 163.265625 -183.140625 C 163.867188 -167.273438 166.929688 -153.769531 172.453125 -142.625 C 177.972656 -131.476562 185.648438 -123.09375 195.484375 -117.46875 C 205.328125 -111.851562 217.078125 -109.046875 230.734375 -109.046875 C 244.992188 -109.046875 257.039062 -112.109375 266.875 -118.234375 C 276.71875 -124.359375 284.203125 -133.441406 289.328125 -145.484375 C 294.453125 -157.535156 297.113281 -172.5 297.3125 -190.375 Z M 297.3125 -616.90625 "/></g></g></g></svg>