
<svg xmlns="http://www.w3.org/2000/svg" width="48" height="48" fill="#1a2a6c" viewBox="0 0 24 24">
  <path d="M12 .5C5.73.5.5 5.74.5 12.02c0 5.1 3.29 9.43 7.86 10.96.58.11.79-.25.79-.56 0-.28-.01-1.02-.02-2-3.2.7-3.88-1.54-3.88-1.54-.53-1.35-1.3-1.71-1.3-1.71-1.06-.73.08-.72.08-.72 1.18.08 1.8 1.21 1.8 1.21 1.04 1.8 2.74 1.28 3.4.98.11-.76.4-1.28.72-1.57-2.56-.29-5.26-1.28-5.26-5.7 0-1.26.45-2.29 1.19-3.1-.12-.29-.52-1.46.11-3.05 0 0 .97-.31 3.18 1.18a11.1 11.1 0 0 1 2.9-.39c.99 0 1.99.13 2.9.39 2.2-1.5 3.17-1.18 3.17-1.18.63 1.59.24 2.76.12 3.05.74.81 1.18 1.84 1.18 3.1 0 4.43-2.7 5.4-5.28 5.68.41.36.77 1.08.77 2.18 0 1.57-.01 2.83-.01 3.21 0 .31.2.68.8.56A10.53 10.53 0 0 0 23.5 12C23.5 5.74 18.27.5 12 .5z"/>
</svg>
